<svg width="35" height="37" viewBox="0 0 35 37" fill="none" xmlns="http://www.w3.org/2000/svg">
<path d="M9.41199 0.898698C10.7575 1.35448 12.0375 1.98454 13.2193 2.77278C14.8884 2.3462 16.6046 2.1319 18.3273 2.13495C20.1064 2.13495 21.8229 2.35711 23.4318 2.77099C24.6131 1.98351 25.8925 1.35406 27.2373 0.898698C28.4861 0.474073 30.2652 -0.213927 31.3223 0.956031C32.0389 1.75153 32.2181 3.08453 32.3453 4.1022C32.4887 5.23811 32.5227 6.71803 32.1464 8.1872C33.5852 10.0452 34.4523 12.2614 34.4523 14.6766C34.4523 18.3352 32.4707 21.5118 29.5378 23.712C28.1263 24.7575 26.5608 25.5771 24.8974 26.1415C25.2808 27.0194 25.494 27.9905 25.494 29.0099V34.3849C25.494 34.8601 25.3052 35.3158 24.9692 35.6518C24.6332 35.9878 24.1775 36.1766 23.7023 36.1766H12.9523C12.4771 36.1766 12.0214 35.9878 11.6854 35.6518C11.3494 35.3158 11.1607 34.8601 11.1607 34.3849V32.6094C9.44962 32.819 8.01449 32.6327 6.79437 32.1149C5.5187 31.5738 4.63003 30.7353 3.96174 29.9327C3.32749 29.173 2.63591 27.4602 1.63616 27.1269C1.41287 27.0526 1.20642 26.935 1.02858 26.7808C0.850746 26.6267 0.705011 26.439 0.599697 26.2286C0.387008 25.8035 0.351877 25.3114 0.502034 24.8604C0.65219 24.4095 0.975334 24.0367 1.40038 23.824C1.82542 23.6113 2.31755 23.5762 2.76849 23.7263C3.96174 24.1241 4.73933 24.9841 5.27145 25.6757C6.13145 26.7865 6.8302 28.2377 8.19187 28.8164C8.75266 29.0547 9.57503 29.2106 10.8615 29.035L11.1607 28.9741C11.1641 27.9991 11.3671 27.0351 11.7573 26.1415C10.0939 25.5771 8.52836 24.7575 7.11687 23.712C4.18391 21.5118 2.20233 18.337 2.20233 14.6766C2.20233 12.265 3.0677 10.0505 4.50283 8.19436C4.12658 6.7252 4.15883 5.2417 4.30216 4.10399L4.31112 4.03591C4.44191 2.99316 4.5942 1.76586 5.3252 0.956031C6.38228 -0.213927 8.1632 0.475865 9.4102 0.90049L9.41199 0.898698Z" fill="#0F1630"/>
</svg>
