<svg width="37" height="37" viewBox="0 0 37 37" fill="none" xmlns="http://www.w3.org/2000/svg">
<path d="M10.975 0.583374H26.025C31.7583 0.583374 36.4166 5.24171 36.4166 10.975V26.025C36.4166 28.7811 35.3218 31.4242 33.373 33.3731C31.4242 35.3219 28.781 36.4167 26.025 36.4167H10.975C5.24165 36.4167 0.583313 31.7584 0.583313 26.025V10.975C0.583313 8.219 1.67815 5.57584 3.62696 3.62702C5.57578 1.67821 8.21894 0.583374 10.975 0.583374ZM10.6166 4.16671C8.906 4.16671 7.26542 4.84626 6.05581 6.05587C4.8462 7.26548 4.16665 8.90606 4.16665 10.6167V26.3834C4.16665 29.9488 7.05123 32.8334 10.6166 32.8334H26.3833C28.094 32.8334 29.7345 32.1538 30.9442 30.9442C32.1538 29.7346 32.8333 28.094 32.8333 26.3834V10.6167C32.8333 7.05129 29.9487 4.16671 26.3833 4.16671H10.6166ZM27.9062 6.85421C28.5002 6.85421 29.0699 7.09016 29.4899 7.51017C29.9099 7.93017 30.1458 8.49982 30.1458 9.09379C30.1458 9.68776 29.9099 10.2574 29.4899 10.6774C29.0699 11.0974 28.5002 11.3334 27.9062 11.3334C27.3123 11.3334 26.7426 11.0974 26.3226 10.6774C25.9026 10.2574 25.6666 9.68776 25.6666 9.09379C25.6666 8.49982 25.9026 7.93017 26.3226 7.51017C26.7426 7.09016 27.3123 6.85421 27.9062 6.85421ZM18.5 9.54171C20.8759 9.54171 23.1545 10.4855 24.8345 12.1655C26.5145 13.8456 27.4583 16.1241 27.4583 18.5C27.4583 20.8759 26.5145 23.1545 24.8345 24.8345C23.1545 26.5146 20.8759 27.4584 18.5 27.4584C16.1241 27.4584 13.8455 26.5146 12.1655 24.8345C10.4855 23.1545 9.54165 20.8759 9.54165 18.5C9.54165 16.1241 10.4855 13.8456 12.1655 12.1655C13.8455 10.4855 16.1241 9.54171 18.5 9.54171ZM18.5 13.125C17.0744 13.125 15.7073 13.6913 14.6993 14.6993C13.6913 15.7073 13.125 17.0745 13.125 18.5C13.125 19.9256 13.6913 21.2927 14.6993 22.3007C15.7073 23.3087 17.0744 23.875 18.5 23.875C19.9255 23.875 21.2927 23.3087 22.3007 22.3007C23.3087 21.2927 23.875 19.9256 23.875 18.5C23.875 17.0745 23.3087 15.7073 22.3007 14.6993C21.2927 13.6913 19.9255 13.125 18.5 13.125Z" fill="#0F1630"/>
</svg>
