<svg width="35" height="33" viewBox="0 0 35 33" fill="none" xmlns="http://www.w3.org/2000/svg">
<path d="M7.43415 3.95829C7.43368 4.90865 7.05569 5.8199 6.38335 6.49157C5.71101 7.16324 4.79939 7.54031 3.84903 7.53984C2.89867 7.53936 1.98742 7.16138 1.31575 6.48904C0.644085 5.81669 0.267012 4.90507 0.267487 3.95471C0.267962 3.00435 0.645946 2.09311 1.31829 1.42144C1.99063 0.749767 2.90225 0.372694 3.85261 0.373169C4.80297 0.373645 5.71422 0.751629 6.38589 1.42397C7.05756 2.09631 7.43463 3.00794 7.43415 3.95829ZM7.54165 10.1933H0.374987V32.625H7.54165V10.1933ZM18.865 10.1933H11.7342V32.625H18.7933V20.8537C18.7933 14.2962 27.3396 13.687 27.3396 20.8537V32.625H34.4167V18.417C34.4167 7.36246 21.7675 7.77454 18.7933 13.2033L18.865 10.1933Z" fill="#0F1630"/>
</svg>
